<svg width="100" height="100" viewBox="0 0 100 100" fill="none" xmlns="http://www.w3.org/2000/svg">
<path d="M68.6249 53.8333C71.7499 53.8333 74.4999 52.125 75.9165 49.5417L90.8332 22.5C92.3749 19.75 90.3749 16.3333 87.2082 16.3333H25.5415L21.6249 8H7.99988V16.3333H16.3332L31.3332 47.9583L25.7082 58.125C22.6665 63.7083 26.6665 70.5 32.9999 70.5H82.9999V62.1667H32.9999L37.5832 53.8333H68.6249ZM29.4999 24.6667H80.1249L68.6249 45.5H39.3749L29.4999 24.6667ZM32.9999 74.6667C28.4165 74.6667 24.7082 78.4167 24.7082 83C24.7082 87.5833 28.4165 91.3333 32.9999 91.3333C37.5832 91.3333 41.3332 87.5833 41.3332 83C41.3332 78.4167 37.5832 74.6667 32.9999 74.6667ZM74.6665 74.6667C70.0832 74.6667 66.3749 78.4167 66.3749 83C66.3749 87.5833 70.0832 91.3333 74.6665 91.3333C79.2499 91.3333 82.9999 87.5833 82.9999 83C82.9999 78.4167 79.2499 74.6667 74.6665 74.6667Z" fill="#EF6A00"/>
</svg>
