<svg width="100" height="100" viewBox="0 0 100 100" fill="none" xmlns="http://www.w3.org/2000/svg">
<path d="M50 8.33337C31.5833 8.33337 16.6666 10.4167 16.6666 25V66.6667C16.6666 70.3334 18.2916 73.625 20.8333 75.9167V83.3334C20.8333 85.625 22.7083 87.5 25 87.5H29.1666C31.4583 87.5 33.3333 85.625 33.3333 83.3334V79.1667H66.6666V83.3334C66.6666 85.625 68.5416 87.5 70.8333 87.5H75C77.2916 87.5 79.1666 85.625 79.1666 83.3334V75.9167C81.7083 73.625 83.3333 70.3334 83.3333 66.6667V25C83.3333 10.4167 68.4166 8.33337 50 8.33337ZM73.5833 20.7917H26.4166C28.7083 18.5834 34.625 16.6667 50 16.6667C65.375 16.6667 71.2916 18.5834 73.5833 20.7917ZM75 29.125V41.6667H25V29.125H75ZM73.5833 69.7084L72.375 70.8334H27.625L26.4166 69.7084C25.875 69.25 25 68.2084 25 66.6667V50H75V66.6667C75 68.2084 74.125 69.25 73.5833 69.7084Z" fill="#EF6A00"/>
<path d="M35.4166 66.6666C38.8684 66.6666 41.6666 63.8684 41.6666 60.4166C41.6666 56.9648 38.8684 54.1666 35.4166 54.1666C31.9648 54.1666 29.1666 56.9648 29.1666 60.4166C29.1666 63.8684 31.9648 66.6666 35.4166 66.6666Z" fill="#EF6A00"/>
<path d="M64.5834 66.6666C68.0352 66.6666 70.8334 63.8684 70.8334 60.4166C70.8334 56.9648 68.0352 54.1666 64.5834 54.1666C61.1316 54.1666 58.3334 56.9648 58.3334 60.4166C58.3334 63.8684 61.1316 66.6666 64.5834 66.6666Z" fill="#EF6A00"/>
</svg>
