<svg width="116" height="102" viewBox="0 0 116 102" fill="none" xmlns="http://www.w3.org/2000/svg">
<path d="M35.035 16.1284L29.1709 23.9514L36.3896 20.49L45.1867 19.5141L35.035 16.1284Z" fill="#EF6A00"/>
<path d="M16.6852 26.6592H24.6561L20.6715 30.0395L17.1361 28.1635" fill="#EF6A00"/>
<path d="M16.6852 26.6592H24.6561L20.6715 30.0395L17.1361 28.1635" stroke="#EF6A00" stroke-width="0.473128" stroke-miterlimit="10"/>
<path d="M20.6715 30.0396L22.4542 34.764L30.6735 37.489" stroke="#EF6A00" stroke-width="0.82797" stroke-miterlimit="10"/>
<path d="M19.0914 34.4785L22.4542 34.7639" stroke="#EF6A00" stroke-width="0.82797" stroke-miterlimit="10"/>
<path d="M49.6257 31.0203H58.6658L62.2858 27.4004H70.6794L74.0985 30.8178H79.9873L86.1897 37.0201" stroke="#EF6A00" stroke-width="0.82797" stroke-miterlimit="10"/>
<path d="M92.9434 30.1167L87.3805 24.5538H78.9569L73.9929 19.5898H56.2438" stroke="#EF6A00" stroke-width="0.82797" stroke-miterlimit="10"/>
<path d="M60.3587 47.207L67.3484 54.195H81.6802L90.6147 63.1312" stroke="#EF6A00" stroke-width="0.82797" stroke-miterlimit="10"/>
<path d="M61.8806 37.4888L67.6355 43.2419H88.4303L90.9599 45.7715" stroke="#EF6A00" stroke-width="0.82797" stroke-miterlimit="10"/>
<path d="M92.193 17.4882H87.2343L83.0172 13.2711L75.0463 13.5723L67.3766 3.64435L58.8033 1.08838L50.9821 1.3896L38.7994 8.75982L47.223 1.99204C38.1987 2.89571 37.1453 3.49638 34.4378 4.39829C31.7304 5.30195 29.7751 10.4157 29.7751 10.4157C29.6254 8.46036 31.2794 5.60317 31.2794 5.60317C29.1726 6.05412 27.9713 7.70995 27.9713 7.70995C26.1657 10.8684 28.8749 14.6275 28.8749 14.6275C28.8749 14.6275 26.4687 17.0337 26.7682 19.44C27.0694 21.8462 27.0694 17.0337 16.6905 26.6587C16.6905 26.6587 16.5407 28.163 17.1414 28.163C17.7421 28.163 15.7868 30.1183 19.0967 34.4816C19.0967 34.4816 17.8936 36.7364 17.7421 37.7898C17.5906 38.8432 19.9968 42.9035 24.8111 46.6643C24.8111 46.6643 25.4135 43.4636 28.8714 43.409L25.262 50.8744L33.233 60.0502L32.1796 50.1222L37.5945 62.0037L55.7946 68.3223L48.4244 59.5992L57.4486 45.0085L54.2902 35.9842" stroke="#EF6A00" stroke-width="0.82797" stroke-miterlimit="10"/>
<path d="M88.573 12.1442C88.8639 12.1442 89.0997 11.9084 89.0997 11.6175C89.0997 11.3266 88.8639 11.0908 88.573 11.0908C88.2821 11.0908 88.0463 11.3266 88.0463 11.6175C88.0463 11.9084 88.2821 12.1442 88.573 12.1442Z" stroke="#EF6A00" stroke-width="0.236555" stroke-miterlimit="10"/>
<path d="M92.7849 19.9655C93.0758 19.9655 93.3116 19.7297 93.3116 19.4388C93.3116 19.1479 93.0758 18.9121 92.7849 18.9121C92.494 18.9121 92.2582 19.1479 92.2582 19.4388C92.2582 19.7297 92.494 19.9655 92.7849 19.9655Z" stroke="#EF6A00" stroke-width="0.236555" stroke-miterlimit="10"/>
<path d="M93.3873 26.5641C93.6782 26.5641 93.914 26.3283 93.914 26.0374C93.914 25.7466 93.6782 25.5107 93.3873 25.5107C93.0964 25.5107 92.8606 25.7466 92.8606 26.0374C92.8606 26.3283 93.0964 26.5641 93.3873 26.5641Z" stroke="#EF6A00" stroke-width="0.236555" stroke-miterlimit="10"/>
<path d="M92.1842 34.2546C92.4751 34.2546 92.7109 34.0188 92.7109 33.7279C92.7109 33.437 92.4751 33.2012 92.1842 33.2012C91.8933 33.2012 91.6575 33.437 91.6575 33.7279C91.6575 34.0188 91.8933 34.2546 92.1842 34.2546Z" stroke="#EF6A00" stroke-width="0.236555" stroke-miterlimit="10"/>
<path d="M93.988 39.9689C94.2789 39.9689 94.5147 39.7331 94.5147 39.4422C94.5147 39.1513 94.2789 38.9155 93.988 38.9155C93.6971 38.9155 93.4613 39.1513 93.4613 39.4422C93.4613 39.7331 93.6971 39.9689 93.988 39.9689Z" stroke="#EF6A00" stroke-width="0.236555" stroke-miterlimit="10"/>
<path d="M86.7692 41.3801C87.0601 41.3801 87.2959 41.1442 87.2959 40.8534C87.2959 40.5625 87.0601 40.3267 86.7692 40.3267C86.4784 40.3267 86.2426 40.5625 86.2426 40.8534C86.2426 41.1442 86.4784 41.3801 86.7692 41.3801Z" stroke="#EF6A00" stroke-width="0.236555" stroke-miterlimit="10"/>
<path d="M81.8053 48.2433C82.0961 48.2433 82.332 48.0075 82.332 47.7166C82.332 47.4257 82.0961 47.1899 81.8053 47.1899C81.5144 47.1899 81.2786 47.4257 81.2786 47.7166C81.2786 48.0075 81.5144 48.2433 81.8053 48.2433Z" stroke="#EF6A00" stroke-width="0.236555" stroke-miterlimit="10"/>
<path d="M98.8022 51.2516C99.0931 51.2516 99.3289 51.0158 99.3289 50.7249C99.3289 50.4341 99.0931 50.1982 98.8022 50.1982C98.5113 50.1982 98.2755 50.4341 98.2755 50.7249C98.2755 51.0158 98.5113 51.2516 98.8022 51.2516Z" stroke="#EF6A00" stroke-width="0.236555" stroke-miterlimit="10"/>
<path d="M96.2462 57.5685C96.5371 57.5685 96.7729 57.3327 96.7729 57.0418C96.7729 56.7509 96.5371 56.5151 96.2462 56.5151C95.9554 56.5151 95.7195 56.7509 95.7195 57.0418C95.7195 57.3327 95.9554 57.5685 96.2462 57.5685Z" stroke="#EF6A00" stroke-width="0.236555" stroke-miterlimit="10"/>
<path d="M96.2462 66.5929C96.5371 66.5929 96.7729 66.3571 96.7729 66.0662C96.7729 65.7754 96.5371 65.5396 96.2462 65.5396C95.9554 65.5396 95.7195 65.7754 95.7195 66.0662C95.7195 66.3571 95.9554 66.5929 96.2462 66.5929Z" stroke="#EF6A00" stroke-width="0.236555" stroke-miterlimit="10"/>
<path d="M91.432 72.9113C91.7229 72.9113 91.9587 72.6755 91.9587 72.3846C91.9587 72.0937 91.7229 71.8579 91.432 71.8579C91.1411 71.8579 90.9053 72.0937 90.9053 72.3846C90.9053 72.6755 91.1411 72.9113 91.432 72.9113Z" stroke="#EF6A00" stroke-width="0.236555" stroke-miterlimit="10"/>
<path d="M82.5574 68.2487C82.8483 68.2487 83.0841 68.0129 83.0841 67.722C83.0841 67.4311 82.8483 67.1953 82.5574 67.1953C82.2665 67.1953 82.0307 67.4311 82.0307 67.722C82.0307 68.0129 82.2665 68.2487 82.5574 68.2487Z" stroke="#EF6A00" stroke-width="0.236555" stroke-miterlimit="10"/>
<path d="M74.2853 71.4054C74.5762 71.4054 74.812 71.1696 74.812 70.8787C74.812 70.5879 74.5762 70.3521 74.2853 70.3521C73.9944 70.3521 73.7586 70.5879 73.7586 70.8787C73.7586 71.1696 73.9944 71.4054 74.2853 71.4054Z" stroke="#EF6A00" stroke-width="0.236555" stroke-miterlimit="10"/>
<path d="M70.4187 71.4054C70.7096 71.4054 70.9454 71.1696 70.9454 70.8787C70.9454 70.5879 70.7096 70.3521 70.4187 70.3521C70.1278 70.3521 69.892 70.5879 69.892 70.8787C69.892 71.1696 70.1278 71.4054 70.4187 71.4054Z" stroke="#EF6A00" stroke-width="0.236555" stroke-miterlimit="10"/>
<path d="M70.6742 73.8137C70.965 73.8137 71.2008 73.5778 71.2008 73.287C71.2008 72.9961 70.965 72.7603 70.6742 72.7603C70.3833 72.7603 70.1475 72.9961 70.1475 73.287C70.1475 73.5778 70.3833 73.8137 70.6742 73.8137Z" stroke="#EF6A00" stroke-width="0.236555" stroke-miterlimit="10"/>
<path d="M86.7692 10.4899C87.0601 10.4899 87.2959 10.2541 87.2959 9.96322C87.2959 9.67233 87.0601 9.43652 86.7692 9.43652C86.4784 9.43652 86.2426 9.67233 86.2426 9.96322C86.2426 10.2541 86.4784 10.4899 86.7692 10.4899Z" stroke="#EF6A00" stroke-width="0.236555" stroke-miterlimit="10"/>
<path d="M64.5089 13.5728H75.4867L81.3913 19.4774H92.193" stroke="#EF6A00" stroke-width="0.236555" stroke-miterlimit="10"/>
<path d="M56.2438 23.9517H72.4798L76.1754 27.6473H86.1897L91.89 33.3476" stroke="#EF6A00" stroke-width="0.236555" stroke-miterlimit="10"/>
<path d="M54.4312 33.3473H61.8807L65.2416 29.9863H69.0959L76.5084 37.4006L78.4795 39.37H93.4613" stroke="#EF6A00" stroke-width="0.236555" stroke-miterlimit="10"/>
<path d="M58.6042 39.3701L69.2068 49.9727H87.5214L83.1458 45.5971H86.1897L91.3791 50.7866H98.1998" stroke="#EF6A00" stroke-width="0.236555" stroke-miterlimit="10"/>
<path d="M68.9268 45.7715H73.9471L75.9006 47.725H81.2786" stroke="#EF6A00" stroke-width="0.236555" stroke-miterlimit="10"/>
<path d="M58.6042 35.6074H63.85L65.6362 37.3936H67.9068H72.0851V40.8532H86.1897" stroke="#EF6A00" stroke-width="0.236555" stroke-miterlimit="10"/>
<path d="M58.6042 47.7251V50.7866L64.7977 56.9784H72.3969H81.2786H95.6614" stroke="#EF6A00" stroke-width="0.236555" stroke-miterlimit="10"/>
<path d="M55.5585 52.3511L62.3774 59.1717H73.9471L82.1505 67.3769" stroke="#EF6A00" stroke-width="0.236555" stroke-miterlimit="10"/>
<path d="M78.291 58.6572L85.6982 66.0662H95.7196" stroke="#EF6A00" stroke-width="0.236555" stroke-miterlimit="10"/>
<path d="M70.7834 5.99609H73.9471L77.9088 9.95776H86.1897" stroke="#EF6A00" stroke-width="0.236555" stroke-miterlimit="10"/>
<path d="M64.5089 5.78857L70.3554 11.6351L88.0481 11.6175" stroke="#EF6A00" stroke-width="0.236555" stroke-miterlimit="10"/>
<path d="M57.6124 15.4062H73.9471L80.1124 22.0701H89.0627L92.9434 25.6231" stroke="#EF6A00" stroke-width="0.236555" stroke-miterlimit="10"/>
<path d="M54.8063 55.1694L61.8806 62.3617H68.8545L74.0669 70.4648" stroke="#EF6A00" stroke-width="0.236555" stroke-miterlimit="10"/>
<path d="M73.1562 62.3613L78.4038 69.6206H88.7228L91.0269 71.9211" stroke="#EF6A00" stroke-width="0.236555" stroke-miterlimit="10"/>
<path d="M53.3777 57.7939L60.3587 66.0661L66.6262 65.9868L70.1492 70.5034" stroke="#EF6A00" stroke-width="0.236555" stroke-miterlimit="10"/>
<path d="M53.0765 61.3276L60.6722 70.4647H66.2563L70.3166 73.0048" stroke="#EF6A00" stroke-width="0.236555" stroke-miterlimit="10"/>
<path d="M0 97.7524V84.0883L3.65517 80.4331H14.2032V85.0184H5.21235V96.8259H14.5026V101.411H3.65693L0 97.7524Z" fill="#EF6A00"/>
<path d="M16.5126 97.9916V88.0426L19.9282 84.627H28.6777L32.0933 88.0426V97.9916L28.6777 101.407H19.9282L16.5126 97.9916ZM21.547 97.391H27.0606V88.6415H21.547V97.391Z" fill="#EF6A00"/>
<path d="M50.4342 80.4307V101.407H38.2674L34.4924 97.632V88.4016L38.2674 84.6266H45.3998V80.4307H50.4342ZM39.5269 97.211H45.3998V88.8208H39.5269V97.211Z" fill="#EF6A00"/>
<path d="M53.0713 97.9916V88.0426L56.4869 84.627H68.3543V94.0969H58.1057V97.2131H67.7554V101.409H56.4886L53.0713 97.9916ZM58.1057 91.6378L64.0984 91.3384V88.4618H58.1057V91.6378Z" fill="#EF6A00"/>
<path d="M70.9913 101.407V80.4307H76.0257V101.407H70.9913Z" fill="#EF6A00"/>
<path d="M78.6028 97.8118V91.8191L88.9712 91.5196V88.8227H79.2018V84.625H90.4086L94.0039 88.2203V101.405H82.1964L78.6028 97.8118ZM83.6373 94.5741V97.3908H88.9712V93.9752L83.6373 94.5741Z" fill="#EF6A00"/>
<path d="M96.8821 101.407V88.2222L100.477 84.627H108.927V89.1823H101.915V101.409H96.8821V101.407Z" fill="#EF6A00"/>
<path d="M110.966 83.0683V79.7725H116V83.0683H110.966ZM110.966 101.408V84.6255H116V101.408H110.966Z" fill="#EF6A00"/>
</svg>
