<svg width="200" height="38" viewBox="0 0 200 38" fill="none" xmlns="http://www.w3.org/2000/svg">
<path d="M0 30.9993V7.4411L6.302 1.1391H24.4884V9.04527H8.98714V29.403H25.0053V37.3092H6.30514L0 30.9993Z" fill="#EF6A00"/>
<path d="M28.4697 31.4126V14.2584L34.3585 8.36966H49.4434L55.3322 14.2584V31.4126L49.4434 37.3013H34.3585L28.4697 31.4126ZM37.1489 30.3772H46.6545V15.2923H37.1489V30.3772Z" fill="#EF6A00"/>
<path d="M86.9553 1.13596V37.3013H65.9769L59.4691 30.7935V14.8791L65.9769 8.37123H78.2745V1.13596H86.9553ZM68.1499 30.0676H78.2761V15.6018H68.1499V30.0676Z" fill="#EF6A00"/>
<path d="M91.5007 31.4126V14.2584L97.3895 8.36966H117.851V24.6973H100.181V30.0692H116.819V37.3029H97.3927L91.5007 31.4126ZM100.181 20.4583L110.514 19.9414V14.9812H100.181V20.4583Z" fill="#EF6A00"/>
<path d="M122.398 37.3013V1.13596H131.079V37.3013H122.398Z" fill="#EF6A00"/>
<path d="M135.522 31.103V20.771L153.399 20.2541V15.6049H136.556V8.36652H155.878L162.076 14.5648V37.2982H141.717L135.522 31.103ZM144.201 25.5206V30.3772H153.397V24.4884L144.201 25.5206Z" fill="#EF6A00"/>
<path d="M167.037 37.3014V14.5695L173.235 8.37125H187.804V16.2256H175.714V37.3061H167.037V37.3014Z" fill="#EF6A00"/>
<path d="M191.319 5.68295V0H200V5.68295H191.319ZM191.319 37.3013V8.36652H200V37.3013H191.319Z" fill="#EF6A00"/>
</svg>
