<svg width="100" height="100" viewBox="0 0 100 100" fill="none" xmlns="http://www.w3.org/2000/svg">
<path d="M68.4167 12C61.1667 12 54.2083 15.375 49.6667 20.7083C45.125 15.375 38.1667 12 30.9167 12C18.0833 12 8 22.0833 8 34.9167C8 50.6667 22.1667 63.5 43.625 83L49.6667 88.4583L55.7083 82.9583C77.1667 63.5 91.3333 50.6667 91.3333 34.9167C91.3333 22.0833 81.25 12 68.4167 12ZM50.0833 76.7917L49.6667 77.2083L49.25 76.7917C29.4167 58.8333 16.3333 46.9583 16.3333 34.9167C16.3333 26.5833 22.5833 20.3333 30.9167 20.3333C37.3333 20.3333 43.5833 24.4583 45.7917 30.1667H53.5833C55.75 24.4583 62 20.3333 68.4167 20.3333C76.75 20.3333 83 26.5833 83 34.9167C83 46.9583 69.9167 58.8333 50.0833 76.7917Z" fill="#EF6A00"/>
</svg>
