<svg width="100" height="100" viewBox="0 0 100 100" fill="none" xmlns="http://www.w3.org/2000/svg">
<path d="M89.25 42.5001H81.55C79.15 32.3501 71.9 24.1001 62.45 20.1001V22.5001C62.5 26.6501 59.15 30.0001 55 30.0001H45V35.0001C45 37.7501 42.75 40.0001 40 40.0001H35V50.0001H40V60.0001H35L18.2 43.2001C17.75 45.4001 17.5 47.6501 17.5 50.0001C17.5 67.9001 32.1 82.5001 50 82.5001V90.0001C27.9 90.0001 10 72.1001 10 50.0001C10 27.9001 27.9 10.0001 50 10.0001C69.55 10.0001 85.75 24.0001 89.25 42.5001ZM90 82.2001L84.7 87.5001L71.9 74.7001C69.2 76.4501 65.95 77.5001 62.5 77.5001C52.85 77.5001 45 69.6501 45 60.0001C45 50.3501 52.85 42.5001 62.5 42.5001C72.15 42.5001 80 50.3501 80 60.0001C80 63.4501 78.95 66.7001 77.2 69.4001L90 82.2001ZM72.5 60.0001C72.5 54.5001 68 50.0001 62.5 50.0001C57 50.0001 52.5 54.5001 52.5 60.0001C52.5 65.5001 57 70.0001 62.5 70.0001C68 70.0001 72.5 65.5001 72.5 60.0001Z" fill="#EF6A00"/>
</svg>
