<svg width="100" height="100" viewBox="0 0 100 100" fill="none" xmlns="http://www.w3.org/2000/svg">
<path d="M50 12L3 47.9333L8.18424 54.7207L15.8182 48.903V89H84.1818V48.903L91.8158 54.7207L97 47.9333L50 12ZM75.6364 80.4444H24.3636V42.3437L50 22.78L75.6364 42.4007V80.4444ZM37.1818 59.0556C37.1818 61.3941 35.2448 63.3333 32.9091 63.3333C30.5733 63.3333 28.6364 61.3941 28.6364 59.0556C28.6364 56.717 30.5733 54.7778 32.9091 54.7778C35.2448 54.7778 37.1818 56.717 37.1818 59.0556ZM54.2727 59.0556C54.2727 61.3941 52.3358 63.3333 50 63.3333C47.6642 63.3333 45.7273 61.3941 45.7273 59.0556C45.7273 56.717 47.6642 54.7778 50 54.7778C52.3358 54.7778 54.2727 56.717 54.2727 59.0556ZM71.3636 59.0556C71.3636 61.3941 69.4267 63.3333 67.0909 63.3333C64.7551 63.3333 62.8182 61.3941 62.8182 59.0556C62.8182 56.717 64.7551 54.7778 67.0909 54.7778C69.4267 54.7778 71.3636 56.717 71.3636 59.0556Z" fill="#EF6A00"/>
</svg>
